<svg version="1.1" id="Layer_1" xmlns="http://www.w3.org/2000/svg" xmlns:xlink="http://www.w3.org/1999/xlink" x="0px" y="0px"
	 width="100%" viewBox="0 0 1024 672" enable-background="new 0 0 1024 672" xml:space="preserve">
<path fill="#000000" opacity="1.000000" stroke="none" 
	d="
M590.280518,504.308228 
	C575.901855,502.356384 571.246521,491.795837 567.894653,480.103149 
	C561.200012,484.729675 559.798462,488.168121 561.692322,494.880157 
	C562.198669,496.674622 562.867676,498.558502 561.159302,499.967590 
	C559.479614,501.353088 557.685974,500.442474 556.007690,499.661346 
	C554.666748,499.037292 553.339783,498.383209 551.973511,497.726501 
	C551.329895,498.281250 550.801880,498.674377 550.346008,499.138367 
	C543.537903,506.068054 543.218567,506.044037 539.094788,497.733063 
	C537.720703,494.963745 535.984924,494.185333 533.086914,495.786041 
	C526.098267,499.646210 524.245117,498.629333 523.789185,490.528748 
	C523.621338,487.546326 522.689819,485.411682 520.005371,484.077332 
	C517.434753,482.799530 515.492493,480.706146 513.306274,478.671814 
	C510.353577,480.866028 507.475525,483.057678 504.539368,485.168610 
	C502.506531,486.630066 502.404968,488.727448 502.252472,490.939331 
	C501.712433,498.772797 499.751373,499.909515 493.152924,495.947021 
	C490.106628,494.117645 488.345398,494.599518 486.904785,497.796722 
	C483.167694,506.090424 482.484467,506.167450 476.099365,499.542236 
	C475.529114,498.950531 474.910095,498.405853 474.407257,497.928192 
	C473.883759,497.960144 473.532623,497.907318 473.236481,498.011292 
	C470.522003,498.964172 467.816376,502.094818 464.995819,499.848114 
	C462.030640,497.486145 464.832001,494.365448 465.376007,491.561066 
	C466.468597,485.928925 461.400452,483.824432 459.172150,479.814453 
	C457.176849,481.765259 456.952728,483.820831 456.348969,485.662689 
	C451.293427,501.085510 439.989929,507.319580 424.494446,503.166565 
	C404.427155,497.788269 384.610687,474.701324 382.488098,454.115662 
	C381.415741,443.715424 385.130646,435.193909 393.011566,428.431427 
	C394.691376,426.990021 396.444702,425.713226 395.141052,423.038696 
	C388.130859,408.656738 392.411530,395.828003 403.580414,386.679779 
	C412.708954,379.202789 413.726318,370.397858 414.808929,360.268250 
	C417.037720,339.413879 424.005157,320.117798 435.995483,302.766876 
	C436.467712,302.083557 436.959900,301.414032 437.392395,300.808533 
	C488.020660,345.819397 537.117126,344.563263 585.940613,297.582062 
	C586.916077,297.645996 587.494202,299.186157 588.330872,300.360840 
	C603.761230,322.025635 611.365356,346.307129 612.247681,372.756348 
	C612.357361,376.045532 613.304810,378.230621 615.899963,380.357666 
	C623.961304,386.964661 631.117310,394.262604 633.500183,405.074097 
	C634.832031,411.117249 633.661316,416.621338 631.364380,422.084869 
	C630.490967,424.162354 629.857971,425.862579 632.177917,427.757446 
	C644.419128,437.755829 646.663208,450.687439 641.087158,464.663330 
	C633.348206,484.060120 619.804993,497.819641 599.164856,503.668701 
	C596.373657,504.459686 593.553162,504.274780 590.280518,504.308228 
M539.540405,433.036163 
	C542.147705,424.591949 544.136414,416.103088 543.801697,407.114471 
	C543.149109,389.586090 526.560425,375.762482 509.247925,378.806183 
	C486.620239,382.784302 479.674042,398.009827 482.871246,418.598389 
	C485.120758,433.084137 491.544281,446.039948 498.207001,458.959351 
	C501.717163,465.765839 507.469269,469.439758 513.138855,473.488098 
	C524.806091,464.849915 524.894043,464.698914 531.135010,452.529175 
	C534.252808,446.449554 536.932495,440.189240 539.540405,433.036163 
M585.333313,494.280365 
	C592.009460,500.349548 604.992737,494.473236 609.369446,485.467987 
	C612.921814,478.158783 609.361938,471.215790 599.901978,467.267578 
	C598.375793,466.630646 596.761475,466.159180 595.147461,465.786560 
	C589.860657,464.565948 585.670410,466.260986 582.617310,470.753906 
	C577.927979,477.654755 578.715942,486.075134 585.333313,494.280365 
M420.768646,470.222198 
	C416.583313,473.376190 414.293396,477.351074 415.556183,482.740479 
	C417.101440,489.335419 425.409637,496.149872 432.272461,496.681366 
	C437.807922,497.110046 441.552155,494.491852 443.926361,489.811951 
	C447.332397,483.098236 447.582428,476.401245 442.857910,470.110474 
	C439.572662,465.736053 435.366150,464.607086 429.514160,466.159973 
	C426.588287,466.936371 423.875183,468.133881 420.768646,470.222198 
M420.725800,446.417206 
	C420.280365,441.932220 418.403229,438.115417 415.233704,434.952942 
	C414.291351,434.012665 413.116882,433.120270 411.674500,433.745331 
	C410.213379,434.378479 410.169617,435.812164 410.205444,437.176697 
	C410.320312,441.550293 412.431305,445.128235 414.827698,448.572174 
	C415.682922,449.801239 416.633270,451.228241 418.343079,450.992188 
	C420.453430,450.700897 420.644409,448.894897 420.725800,446.417206 
M606.836487,450.488617 
	C611.688171,449.814423 617.576721,439.461426 615.632812,435.004242 
	C614.636292,432.719299 613.103394,433.400604 611.582458,434.340881 
	C607.194641,437.053528 604.532715,444.922791 606.836487,450.488617 
M618.996582,455.446533 
	C622.768311,452.843445 625.518738,449.405518 627.260864,445.181091 
	C627.769165,443.948517 628.078552,442.607056 626.980957,441.482147 
	C626.190979,440.672546 625.220520,440.839966 624.211975,441.098450 
	C620.434265,442.066864 614.521851,448.851410 614.314758,452.709351 
	C614.160706,455.578644 615.046387,457.399933 618.996582,455.446533 
M407.919403,445.597260 
	C405.377441,443.418335 402.506500,439.113251 399.361877,441.998962 
	C396.269653,444.836731 400.212982,448.359222 402.243713,450.852966 
	C404.361908,453.454102 407.095001,458.317993 410.618195,455.634583 
	C414.075165,453.001678 410.314575,449.140198 407.919403,445.597260 
M629.358826,461.894440 
	C631.758850,459.923950 636.531128,458.383575 633.948608,454.620941 
	C631.689148,451.328918 627.830017,454.000885 625.195923,455.893341 
	C623.300903,457.254883 620.580872,459.025482 622.173828,461.891968 
	C623.827393,464.867340 626.461243,463.283356 629.358826,461.894440 
M403.908203,461.763397 
	C403.551483,457.125397 398.022522,452.551270 393.822815,453.425995 
	C391.866821,453.833374 390.942993,454.955383 391.507050,456.981079 
	C392.587372,460.860840 399.712708,464.002197 403.908203,461.763397 
M431.327087,438.484009 
	C430.161194,436.160736 429.239349,432.898468 425.959229,433.816437 
	C423.176727,434.595154 424.034851,437.712921 424.284271,439.883636 
	C424.652588,443.089172 424.960663,447.641968 429.094971,447.139618 
	C433.256714,446.633972 431.566620,442.212982 431.327087,438.484009 
M594.143494,443.181458 
	C594.242737,445.109192 594.669678,447.046448 596.861511,447.362396 
	C599.380005,447.725433 600.109680,445.504211 600.932068,443.723175 
	C602.082275,441.232056 602.156006,438.550720 601.708435,435.925079 
	C601.235107,433.148621 599.494202,432.739075 597.425293,434.398438 
	C594.913696,436.412842 594.153931,439.277527 594.143494,443.181458 
z"/>
<path fill="#000000" opacity="1.000000" stroke="none" 
	d="
M510.103455,233.102875 
	C510.041199,237.161026 511.838593,239.797119 514.675598,241.901215 
	C519.353638,245.370697 524.067078,248.797379 528.643555,252.397247 
	C532.580750,255.494308 536.194580,258.938660 538.510071,263.511108 
	C542.897827,272.175812 537.657898,282.028900 528.012268,283.229980 
	C511.920197,285.233704 490.139801,268.553345 487.511719,252.398285 
	C486.756805,247.757828 489.053253,245.513016 492.882935,244.187134 
	C496.228424,243.028900 499.427643,241.760574 501.637817,238.777481 
	C505.859985,233.078934 503.931763,227.297760 497.134094,225.286316 
	C492.115112,223.801163 486.832916,222.363403 486.272491,215.945129 
	C485.942780,212.168869 490.887115,208.483887 497.582672,206.940842 
	C504.574341,205.329544 511.473328,205.660599 518.159790,208.305954 
	C521.801453,209.746674 525.298401,211.617554 525.316284,216.275177 
	C525.333435,220.730484 521.933899,222.535233 518.508057,223.956665 
	C514.364685,225.675797 510.478729,227.446365 510.103455,233.102875 
z"/>
<path fill="#000000" opacity="1.000000" stroke="none" 
	d="
M450.077942,179.493088 
	C453.310394,180.397827 456.277710,180.890839 458.356140,182.944351 
	C458.385712,184.673355 457.266998,185.225266 456.377960,185.924301 
	C445.761383,194.272095 437.551331,204.562515 431.489838,216.609909 
	C429.116516,221.326935 428.176605,221.494125 424.617767,217.466064 
	C418.297333,210.312378 415.962646,202.191742 419.818817,193.086090 
	C423.698303,183.925430 431.043182,179.437286 440.772583,178.716232 
	C443.736755,178.496552 446.756592,178.456009 450.077942,179.493088 
z"/>
<path fill="#000000" opacity="1.000000" stroke="none" 
	d="
M568.156982,179.744629 
	C584.421936,176.110794 597.397400,182.970245 600.823486,196.716248 
	C603.097656,205.840469 598.094116,217.191452 589.972046,220.378113 
	C583.084656,206.089401 573.782715,193.523483 560.701355,184.065201 
	C562.502380,180.771240 565.449829,180.868500 568.156982,179.744629 
z"/>
<path fill="#000000" opacity="1.000000" stroke="none" 
	d="
M480.930237,204.912689 
	C474.078125,212.342667 468.906006,220.351868 465.790527,229.682129 
	C464.795013,232.663437 463.046112,235.392242 460.882324,237.732361 
	C457.446503,241.448196 453.760925,240.975571 451.150574,236.609390 
	C449.712250,234.203537 449.291748,231.541367 449.818909,228.901596 
	C452.150085,217.227875 458.150574,207.990662 468.596619,202.007690 
	C471.628662,200.271088 474.991882,199.235733 478.650360,200.295029 
	C480.968811,200.966309 482.190369,202.086807 480.930237,204.912689 
z"/>
<path fill="#000000" opacity="1.000000" stroke="none" 
	d="
M539.416687,197.093018 
	C551.466736,200.642654 559.021057,208.594635 563.991272,219.298721 
	C565.036804,221.550293 565.630005,224.039307 565.189697,226.582504 
	C564.720459,229.293304 563.714661,231.783707 560.933350,232.873322 
	C558.380676,233.873322 556.418701,232.281433 554.626038,230.834473 
	C551.213989,228.080322 548.824341,224.432053 546.671387,220.695068 
	C543.208374,214.684250 538.565063,209.834717 533.129517,205.599030 
	C531.179016,204.079071 527.745483,202.792206 529.057983,199.599030 
	C530.144653,196.955368 533.372803,196.886688 536.042847,196.743851 
	C537.025940,196.691254 538.022644,196.892609 539.416687,197.093018 
z"/>
</svg>