<svg width="1920" height="1080" viewBox="0 0 1920 1080" xmlns="http://www.w3.org/2000/svg"><rect width="1920" height="1080" fill="#6f5bbf"/><path d="M 0,1080 C 0,1080 0,120 0,120 C 51.92209680403923,132.30275714399005 103.84419360807846,144.60551428798013 184,144 C 264.15580639192154,143.39448571201987 372.54532237172543,129.8806999920696 447,112 C 521.4546776282746,94.11930000793042 561.9745169050199,71.87168574374157 633,76 C 704.0254830949801,80.12831425625843 805.5566100081949,110.63255703296414 887,128 C 968.4433899918051,145.36744296703586 1029.7990430622008,149.59808612440193 1100,146 C 1170.2009569377992,142.40191387559807 1249.2472177430013,130.97509846942822 1308,134 C 1366.7527822569987,137.02490153057178 1405.2120859657937,154.5015199978852 1471,153 C 1536.7879140342063,151.4984800021148 1629.9044383938246,131.0188215390309 1717,118 C 1804.0955616061754,104.9811784609691 1885.1701604589073,99.42319384599118 1918,101 C 1950.8298395410927,102.57680615400882 1935.4149197705465,111.2884030770044 1920,120 C 1920,120 1920,1080 1920,1080 Z" fill="#f8f7f7" opacity="0.06666666666666667"/><path d="M 0,1080 C 0,1080 0,240 0,240 C 49.49040418726375,234.44513468502998 98.9808083745275,228.89026937006 184,225 C 269.0191916254725,221.10973062994 389.56717068915384,218.88405720479 460,232 C 530.4328293108462,245.11594279521 550.7505088688572,273.5735018107801 609,284 C 667.2494911311428,294.4264981892199 763.4307938354173,286.82193555208966 851,277 C 938.5692061645827,267.17806444791034 1017.526315789474,255.13875598086128 1086,258 C 1154.473684210526,260.8612440191387 1212.4639430066877,278.62304052446535 1276,272 C 1339.5360569933123,265.37695947553465 1408.6179121837745,234.36908192127734 1480,229 C 1551.3820878162255,223.63091807872266 1625.0644082582146,243.90063179042536 1704,248 C 1782.9355917417854,252.09936820957464 1867.1244547833674,240.0283909170213 1904,236 C 1940.8755452166326,231.9716090829787 1930.4377726083162,235.98580454148936 1920,240 C 1920,240 1920,1080 1920,1080 Z" fill="#f8f7f7" opacity="0.13333333333333333"/><path d="M 0,1080 C 0,1080 0,360 0,360 C 69.61727774987443,368.4640355282984 139.23455549974886,376.9280710565968 209,384 C 278.76544450025114,391.0719289434032 348.67905575087894,396.7517513019112 422,396 C 495.32094424912106,395.2482486980888 572.0492214967353,388.06492373575827 654,381 C 735.9507785032647,373.93507626424173 823.1240582621799,366.9885537550556 889,367 C 954.8759417378201,367.0114462449444 999.4545454545453,373.98086124401914 1066,364 C 1132.5454545454547,354.01913875598086 1221.0577599196386,327.08800126886786 1296,338 C 1370.9422400803614,348.91199873113214 1432.3144148669012,397.66713368050966 1492,393 C 1551.6855851330988,388.33286631949034 1609.6845806127571,330.24346400909354 1691,325 C 1772.3154193872429,319.75653599090646 1876.9472626820693,367.3590102831161 1919,382 C 1961.0527373179307,396.6409897168839 1940.5263686589653,378.320494858442 1920,360 C 1920,360 1920,1080 1920,1080 Z" fill="#f8f7f7" opacity="0.2"/><path d="M 0,1080 C 0,1080 0,480 0,480 C 55.6923392106585,496.1674112453409 111.384678421317,512.3348224906817 184,511 C 256.615321578683,509.6651775093182 346.1536255253905,490.8281212826138 426,489 C 505.8463744746095,487.1718787173862 576.0008194771208,502.35269237886286 638,499 C 699.9991805228792,495.64730762113714 753.8430965661265,473.76110920193497 829,458 C 904.1569034338735,442.23889079806503 1000.6267942583734,432.6028708133971 1087,436 C 1173.3732057416266,439.3971291866029 1249.6497264003806,455.82740754447644 1308,472 C 1366.3502735996194,488.17259245552356 1406.7743001401043,504.08749900869697 1479,496 C 1551.2256998598957,487.91250099130303 1655.2530730392027,455.82259642073547 1746,462 C 1836.7469269607973,468.17740357926453 1914.2134077030848,512.6221153083613 1941,522 C 1967.7865922969152,531.3778846916387 1943.8932961484575,505.6889423458193 1920,480 C 1920,480 1920,1080 1920,1080 Z" fill="#f8f7f7" opacity="0.26666666666666666"/><path d="M 0,1080 C 0,1080 0,600 0,600 C 54.13167146897882,577.2316212429618 108.26334293795765,554.4632424859235 193,560 C 277.73665706204235,565.5367575140765 393.0782997171483,599.3786512992679 466,618 C 538.9217002828517,636.6213487007321 569.4234581934495,640.0221523170054 638,626 C 706.5765418065505,611.9778476829946 813.2278675090538,580.5327394327104 883,581 C 952.7721324909462,581.4672605672896 985.6650717703349,613.8468899521532 1054,608 C 1122.3349282296651,602.1531100478468 1226.1118454096063,558.0797007586771 1305,561 C 1383.8881545903937,563.9202992413229 1437.8875465912395,613.8343070131381 1495,622 C 1552.1124534087605,630.1656929868619 1612.3379682254354,596.5830711887704 1685,577 C 1757.6620317745646,557.4169288112296 1842.7605805070184,551.8334082317799 1884,558 C 1925.2394194929816,564.1665917682201 1922.6197097464908,582.08329588411 1920,600 C 1920,600 1920,1080 1920,1080 Z" fill="#f8f7f7" opacity="0.3333333333333333"/><path d="M 0,1080 C 0,1080 0,720 0,720 C 92.04552063231912,722.7316608950805 184.09104126463825,725.463321790161 249,729 C 313.90895873536175,732.536678209839 351.6813555737661,736.8783737344365 411,736 C 470.3186444262339,735.1216262655635 551.1835364402972,729.0231832720929 634,722 C 716.8164635597028,714.9768167279071 801.5844986650454,707.0288931771921 880,712 C 958.4155013349546,716.9711068228079 1030.4784688995214,734.8612440191388 1097,727 C 1163.5215311004786,719.1387559808612 1224.5016257368686,685.5261307462529 1288,692 C 1351.4983742631314,698.4738692537471 1417.5150281530043,745.0342329958498 1483,760 C 1548.4849718469957,774.9657670041502 1613.438261651114,758.3369372703481 1692,746 C 1770.561738348886,733.6630627296519 1862.7319252425389,725.6180179227578 1903,722 C 1943.2680747574611,718.3819820772422 1931.6340373787307,719.1909910386212 1920,720 C 1920,720 1920,1080 1920,1080 Z" fill="#f8f7f7" opacity="0.4"/><path d="M 0,1080 C 0,1080 0,840 0,840 C 73.85858732718285,842.3396203970499 147.7171746543657,844.6792407940999 209,852 C 270.2828253456343,859.3207592059001 318.9898887097201,871.6226572206508 390,861 C 461.0101112902799,850.3773427793492 554.323270506754,816.830130323297 626,803 C 697.676729493246,789.169869676703 747.7170292632636,795.0568214861614 819,803 C 890.2829707367364,810.9431785138386 982.8086124401914,820.9425837320574 1060,836 C 1137.1913875598086,851.0574162679426 1199.0485209759709,871.172843585609 1279,868 C 1358.9514790240291,864.827156414391 1456.9973036559254,838.3660419255068 1526,841 C 1595.0026963440746,843.6339580744932 1634.9622644003275,875.3629887123635 1705,879 C 1775.0377355996725,882.6370112876365 1875.1536387427636,858.182003225039 1916,847 C 1956.8463612572364,835.817996774961 1938.4231806286182,837.9089983874806 1920,840 C 1920,840 1920,1080 1920,1080 Z" fill="#f8f7f7" opacity="0.4666666666666667"/><path d="M 0,1080 C 0,1080 0,960 0,960 C 65.18939173649844,952.0934864786275 130.37878347299687,944.1869729572551 194,942 C 257.6212165270031,939.8130270427449 319.67425784451086,943.3455946496075 407,943 C 494.32574215548914,942.6544053503925 606.9241851489597,938.4306484443152 679,931 C 751.0758148510403,923.5693515556848 782.6290015596501,912.9318115731318 847,915 C 911.3709984403499,917.0681884268682 1008.5598086124401,931.8421052631579 1081,941 C 1153.44019138756,950.1578947368421 1201.1317639905892,953.6997673742366 1273,948 C 1344.8682360094108,942.3002326257634 1440.9131354252029,927.3588252398954 1507,923 C 1573.0868645747971,918.6411747601046 1609.2156943085993,924.8649316661819 1686,924 C 1762.7843056914007,923.1350683338181 1880.2240873404003,915.1814480953766 1926,920 C 1971.7759126595997,924.8185519046234 1945.8879563297999,942.4092759523116 1920,960 C 1920,960 1920,1080 1920,1080 Z" fill="#f8f7f7" opacity="0.5333333333333333"/></svg>